<svg width="78" height="20" viewBox="0 0 78 20" fill="none" xmlns="http://www.w3.org/2000/svg">
<path d="M78 4C78 1.832 74.337 0 70 0C65.663 0 62 1.832 62 4V6C62 8.168 65.663 10 70 10C74.337 10 78 8.168 78 6V4ZM70 17C65.663 17 62 15.168 62 13V16C62 18.168 65.663 20 70 20C74.337 20 78 18.168 78 16V13C78 15.168 74.337 17 70 17Z" fill="white"/>
<path d="M78 8C78 10.168 74.337 12 70 12C65.663 12 62 10.168 62 8V11C62 13.168 65.663 15 70 15C74.337 15 78 13.168 78 11V8Z" fill="white"/>
<path d="M13.7539 11.373H5.87891V16.7051H15.1211V20H1.77734V0.09375H15.0938V3.41602H5.87891V8.16016H13.7539V11.373ZM29.5039 11.373H21.6289V16.7051H30.8711V20H17.5273V0.09375H30.8438V3.41602H21.6289V8.16016H29.5039V11.373ZM33.2773 20V0.09375H39.4023C41.1523 0.09375 42.7155 0.490234 44.0918 1.2832C45.4772 2.06706 46.5573 3.18815 47.332 4.64648C48.1068 6.0957 48.4941 7.74544 48.4941 9.5957V10.5117C48.4941 12.362 48.1113 14.0072 47.3457 15.4473C46.5892 16.8874 45.5182 18.0039 44.1328 18.7969C42.7474 19.5898 41.1842 19.9909 39.4434 20H33.2773ZM37.3789 3.41602V16.7051H39.3613C40.9655 16.7051 42.1914 16.181 43.0391 15.1328C43.8867 14.0846 44.3197 12.5853 44.3379 10.6348V9.58203C44.3379 7.55859 43.9186 6.02734 43.0801 4.98828C42.2415 3.9401 41.0156 3.41602 39.4023 3.41602H37.3789Z" fill="white"/>
</svg>
